<?xml version="1.0" ?><svg id="Layer_1" style="enable-background:new 0 0 512 512;" version="1.1" viewBox="0 0 512 512" xml:space="preserve" xmlns="http://www.w3.org/2000/svg" xmlns:xlink="http://www.w3.org/1999/xlink"><style type="text/css">
	.st0{fill:none;stroke:#000000;stroke-width:2;stroke-linecap:round;stroke-linejoin:round;stroke-miterlimit:10;}
	.st1{stroke:#000000;stroke-width:2;stroke-linecap:round;stroke-linejoin:round;stroke-miterlimit:10;}
	.st2{fill:#FFFFFF;}
</style><g><g><path d="M503.27,168.1H8.73c-4.27,0-7.73-3.46-7.73-7.73V56.54c0-4.27,3.46-7.73,7.73-7.73h494.55c4.27,0,7.73,3.46,7.73,7.73    v103.83C511,164.64,507.54,168.1,503.27,168.1z M16.45,152.64h479.09V64.27H16.45V152.64z"/></g><g><path d="M503.27,463.18H8.73c-4.27,0-7.73-3.46-7.73-7.73V160.37c0-4.27,3.46-7.73,7.73-7.73h494.55c4.27,0,7.73,3.46,7.73,7.73    v295.09C511,459.72,507.54,463.18,503.27,463.18z M16.45,447.73h479.09V168.1H16.45V447.73z"/></g><g><path d="M153.78,418.67c-0.06,0-0.13,0-0.19,0c-2.42-0.06-4.67-1.25-6.08-3.21L90,335.56c-1.7-2.35-1.93-5.46-0.6-8.04    c1.32-2.58,3.98-4.2,6.87-4.2h23.42V204.88c0-4.27,3.46-7.73,7.73-7.73h53.76c4.27,0,7.73,3.46,7.73,7.73v118.44h28.63    c2.97,0,5.67,1.7,6.97,4.38c1.28,2.68,0.93,5.85-0.93,8.17l-63.76,79.9C158.35,417.6,156.13,418.67,153.78,418.67z M111.36,338.77    l42.74,59.38l47.39-59.38h-20.31c-4.27,0-7.73-3.46-7.73-7.73V212.61h-38.3v118.44c0,4.27-3.46,7.73-7.73,7.73H111.36z"/></g><g><path d="M375.44,418.7c-5.91,0-12.61-1.83-19.72-7c-9.7-7.04-15.48-18.88-15.48-31.68v-84.58C321,275,312.77,255.27,315.79,236.76    c4.18-25.59,28.43-38.24,29.46-38.76c2.4-1.23,5.26-1.11,7.55,0.29c2.29,1.41,3.69,3.9,3.69,6.59v22.37    c0,6.74,5.49,12.22,12.22,12.22h13.9c6.74,0,12.22-5.48,12.22-12.22l-0.1-21.93c-0.02-2.7,1.38-5.2,3.68-6.62    c2.29-1.41,5.18-1.52,7.56-0.29c1.01,0.51,24.68,12.89,28.8,38.1c3.02,18.52-5.28,38.33-24.68,58.93v84.78    c0,14.95-7.67,28.25-20.01,34.71C386.17,416.98,381.18,418.7,375.44,418.7z M341.04,220.51c-4.42,4.58-8.75,10.91-10.01,18.86    c-2.24,14.05,5.32,30.05,22.46,47.56c1.41,1.45,2.2,3.38,2.2,5.41v87.69c0,7.86,3.41,15.03,9.12,19.18    c6.28,4.57,12.04,5.23,18.1,2.04c7.12-3.72,11.73-11.98,11.73-21.02v-87.89c0-2.02,0.79-3.96,2.2-5.41    c17.3-17.66,24.93-33.75,22.7-47.81c-1.2-7.52-5.15-13.54-9.28-17.97l0.03,6.07c0,15.3-12.41,27.71-27.67,27.71h-13.9    c-15.27,0-27.68-12.41-27.68-27.68V220.51z"/></g><g><path d="M462.1,116.18H298.33c-4.27,0-7.73-3.46-7.73-7.73c0-4.27,3.46-7.73,7.73-7.73H462.1c4.27,0,7.73,3.46,7.73,7.73    C469.83,112.72,466.37,116.18,462.1,116.18z"/></g><g><path d="M227.85,116.18h-23.18c-4.27,0-7.73-3.46-7.73-7.73c0-4.27,3.46-7.73,7.73-7.73h23.18c4.27,0,7.73,3.46,7.73,7.73    C235.58,112.72,232.12,116.18,227.85,116.18z M181.49,116.18h-23.18c-4.27,0-7.73-3.46-7.73-7.73c0-4.27,3.46-7.73,7.73-7.73    h23.18c4.27,0,7.73,3.46,7.73,7.73C189.22,112.72,185.76,116.18,181.49,116.18z M135.13,116.18h-23.18    c-4.27,0-7.73-3.46-7.73-7.73c0-4.27,3.46-7.73,7.73-7.73h23.18c4.27,0,7.73,3.46,7.73,7.73    C142.85,112.72,139.4,116.18,135.13,116.18z M88.76,116.18H65.58c-4.27,0-7.73-3.46-7.73-7.73c0-4.27,3.46-7.73,7.73-7.73h23.18    c4.27,0,7.73,3.46,7.73,7.73C96.49,112.72,93.03,116.18,88.76,116.18z"/></g></g></svg>