<?xml version="1.0" ?><svg viewBox="0 0 32 32" xmlns="http://www.w3.org/2000/svg"><defs><style>.cls-1{fill:none;stroke:#000;stroke-linecap:round;stroke-linejoin:round;stroke-width:2px;}</style></defs><title/><g data-name="07-phone" id="_07-phone"><path class="cls-1" d="M13,31H9a2,2,0,0,1-2-2V3A2,2,0,0,1,9,1H23a2,2,0,0,1,2,2V15"/><path class="cls-1" d="M20,1V3a2,2,0,0,1-2,2H14a2,2,0,0,1-2-2V1"/><path class="cls-1" d="M16,29a2,2,0,0,0,2,2h8a2,2,0,0,0,2-2V24l3,3"/><line class="cls-1" x1="28" x2="25" y1="24" y2="27"/><path class="cls-1" d="M28,21a2,2,0,0,0-2-2H18a2,2,0,0,0-2,2v5l-3-3"/><line class="cls-1" x1="16" x2="19" y1="26" y2="23"/></g></svg>