<?xml version="1.0" ?><!DOCTYPE svg  PUBLIC '-//W3C//DTD SVG 1.1//EN'  'http://www.w3.org/Graphics/SVG/1.1/DTD/svg11.dtd'><svg height="32" version="1.1" viewBox="0 0 32 32" width="32" xmlns="http://www.w3.org/2000/svg" xmlns:xlink="http://www.w3.org/1999/xlink"><g/><path d="M26.804 20.069h-22.045c-0.276 0-0.5-0.224-0.5-0.5s0.224-0.5 0.5-0.5h22.045c0.276 0 0.5 0.224 0.5 0.5s-0.224 0.5-0.5 0.5z" fill="#000000"/><path d="M20.39 26.687h-8.78c-0.276 0-0.5-0.224-0.5-0.5s0.224-0.5 0.5-0.5h8.779c0.276 0 0.5 0.224 0.5 0.5s-0.223 0.5-0.499 0.5z" fill="#000000"/><path d="M30.125 32.022h-28.437c-0.783 0-1.594-0.526-1.594-1.406l0.004-1.787c0-0.004 0-0.007 0-0.011 0.001-0.040 0.007-0.079 0.017-0.116l2.327-9.551 0.042-4.743v-12.763c0-0.919 0.856-1.667 1.909-1.667h22.79c1.051 0 1.906 0.748 1.906 1.667v17.499l2.728 9.54c0.007 0.021 0.012 0.042 0.016 0.063 0.004 0.023 0.006 0.047 0.007 0.070l0.067 1.986c-0.001 0.741-0.7 1.219-1.782 1.219zM1.095 29.561l-0.001 1.056c0 0.243 0.307 0.406 0.594 0.406h28.438c0.484 0 0.781-0.142 0.781-0.219l-0.031-1.249c-0.304 0.053-0.702 0.085-1.227 0.085h-27.361c-0.505 0-0.894-0.031-1.193-0.079zM1.179 28.557c0.231 0.042 0.605 0.083 1.109 0.083h27.36c0.492 0 0.86-0.039 1.093-0.080l-2.633-9.208c-0.013-0.045-0.020-0.091-0.020-0.138v-17.569c0-0.361-0.415-0.667-0.906-0.667h-22.789c-0.493 0-0.909 0.306-0.909 0.667l-0.044 17.574c0 0.038-0.005 0.076-0.014 0.113l-2.247 9.225z" fill="#000000"/><path d="M18.562 30.53h-5.125c-0.5 0-0.906-0.406-0.906-0.906 0-0.207 0.168-0.375 0.375-0.375s0.375 0.168 0.375 0.375c0 0.086 0.070 0.156 0.156 0.156h5.125c0.086 0 0.156-0.070 0.156-0.156 0-0.207 0.168-0.375 0.375-0.375s0.375 0.168 0.375 0.375c0.001 0.5-0.406 0.906-0.906 0.906z" fill="#000000"/><path d="M15.954 14.799c-0.812 0-1.472-0.661-1.472-1.473v-2.214c-1.060-0.558-1.728-1.649-1.728-2.868 0-1.79 1.456-3.246 3.245-3.246 1.789 0 3.245 1.456 3.245 3.246 0 1.245-0.717 2.374-1.817 2.913v2.169c0.001 0.813-0.66 1.473-1.473 1.473zM16 5.999c-1.238 0-2.245 1.008-2.245 2.246 0 0.924 0.555 1.742 1.413 2.084 0.19 0.076 0.314 0.26 0.314 0.464v2.533c0 0.261 0.211 0.473 0.472 0.473 0.261 0 0.474-0.212 0.474-0.473v-2.5c0-0.211 0.133-0.399 0.332-0.471 0.889-0.318 1.486-1.167 1.486-2.111-0.001-1.238-1.008-2.245-2.246-2.245z" fill="#000000"/><path d="M25.781 17.687h-20.062c-0.827 0-1.5-0.673-1.5-1.5v-12.875c0-0.827 0.673-1.5 1.5-1.5h20.062c0.827 0 1.5 0.673 1.5 1.5v12.875c0 0.827-0.673 1.5-1.5 1.5zM5.719 2.812c-0.276 0-0.5 0.224-0.5 0.5v12.875c0 0.275 0.224 0.5 0.5 0.5h20.062c0.275 0 0.5-0.224 0.5-0.5v-12.875c0-0.276-0.225-0.5-0.5-0.5h-20.062z" fill="#000000"/></svg>